<?xml version="1.0" encoding="UTF-8" standalone="no"?>
<!DOCTYPE svg PUBLIC "-//W3C//DTD SVG 1.1//EN"
 "http://www.w3.org/Graphics/SVG/1.1/DTD/svg11.dtd">
<!-- Generated by graphviz version 2.47.0 (20210316.0004)
 -->
<!-- Title: dependencies Pages: 1 -->
<svg width="1212pt" height="284pt"
 viewBox="0.00 0.00 1212.00 284.00" xmlns="http://www.w3.org/2000/svg" xmlns:xlink="http://www.w3.org/1999/xlink">
<g id="graph0" class="graph" transform="scale(1 1) rotate(0) translate(4 280)">
<title>dependencies</title>
<polygon fill="white" stroke="transparent" points="-4,4 -4,-280 1208,-280 1208,4 -4,4"/>
<text text-anchor="start" x="581.01" y="-42.4" font-family="Times-12" font-weight="bold" font-size="14.00">Legend</text>
<polygon fill="#ffffb3" stroke="transparent" points="368,-10 368,-30 388,-30 388,-10 368,-10"/>
<text text-anchor="start" x="391.63" y="-15.4" font-family="Times-12" font-size="14.00"> &#160;Declarations</text>
<polygon fill="#8dd3c7" stroke="transparent" points="481,-10 481,-30 501,-30 501,-10 481,-10"/>
<text text-anchor="start" x="504.73" y="-15.4" font-family="Times-12" font-size="14.00"> &#160;Module</text>
<polygon fill="#80b1d3" stroke="transparent" points="567,-10 567,-30 587,-30 587,-10 567,-10"/>
<text text-anchor="start" x="590.78" y="-15.4" font-family="Times-12" font-size="14.00"> &#160;Bootstrap</text>
<polygon fill="#fdb462" stroke="transparent" points="664,-10 664,-30 684,-30 684,-10 664,-10"/>
<text text-anchor="start" x="687.67" y="-15.4" font-family="Times-12" font-size="14.00"> &#160;Providers</text>
<polygon fill="#fb8072" stroke="transparent" points="760,-10 760,-30 780,-30 780,-10 760,-10"/>
<text text-anchor="start" x="783.73" y="-15.4" font-family="Times-12" font-size="14.00"> &#160;Exports</text>
<g id="clust1" class="cluster">
<title>cluster_AdminModule</title>
<polygon fill="none" stroke="black" stroke-dasharray="1,5" points="8,-70 8,-195 184,-195 184,-70 8,-70"/>
</g>
<g id="clust3" class="cluster">
<title>cluster_AdminModule_imports</title>
<polygon fill="none" stroke="black" points="16,-78 16,-130 176,-130 176,-78 16,-78"/>
</g>
<g id="clust13" class="cluster">
<title>cluster_AuthModule</title>
<polygon fill="none" stroke="black" stroke-dasharray="1,5" points="192,-70 192,-268 342,-268 342,-70 192,-70"/>
</g>
<g id="clust14" class="cluster">
<title>cluster_AuthModule_declarations</title>
<polygon fill="none" stroke="black" points="202,-78 202,-130 332,-130 332,-78 202,-78"/>
</g>
<g id="clust17" class="cluster">
<title>cluster_AuthModule_exports</title>
<polygon fill="none" stroke="black" points="200,-208 200,-260 334,-260 334,-208 200,-208"/>
</g>
<g id="clust20" class="cluster">
<title>cluster_DashboardModule</title>
<polygon fill="none" stroke="black" stroke-dasharray="1,5" points="350,-70 350,-195 1024,-195 1024,-70 350,-70"/>
</g>
<g id="clust22" class="cluster">
<title>cluster_DashboardModule_imports</title>
<polygon fill="none" stroke="black" points="358,-78 358,-130 1016,-130 1016,-78 358,-78"/>
</g>
<g id="clust32" class="cluster">
<title>cluster_UserModule</title>
<polygon fill="none" stroke="black" stroke-dasharray="1,5" points="1032,-70 1032,-195 1196,-195 1196,-70 1032,-70"/>
</g>
<g id="clust34" class="cluster">
<title>cluster_UserModule_imports</title>
<polygon fill="none" stroke="black" points="1040,-78 1040,-130 1188,-130 1188,-78 1040,-78"/>
</g>
<!-- AdminRoutingModule -->
<g id="node1" class="node">
<title>AdminRoutingModule</title>
<polygon fill="#8dd3c7" stroke="black" points="167.56,-122 164.56,-126 143.56,-126 140.56,-122 24.44,-122 24.44,-86 167.56,-86 167.56,-122"/>
<text text-anchor="middle" x="96" y="-99.8" font-family="Times,serif" font-size="14.00">AdminRoutingModule</text>
</g>
<!-- AdminModule -->
<g id="node2" class="node">
<title>AdminModule</title>
<polygon fill="#8dd3c7" stroke="black" points="145.44,-187 142.44,-191 121.44,-191 118.44,-187 46.56,-187 46.56,-151 145.44,-151 145.44,-187"/>
<text text-anchor="middle" x="96" y="-164.8" font-family="Times,serif" font-size="14.00">AdminModule</text>
</g>
<!-- AdminRoutingModule&#45;&gt;AdminModule -->
<g id="edge1" class="edge">
<title>AdminRoutingModule&#45;&gt;AdminModule</title>
<path fill="none" stroke="black" d="M96,-122.11C96,-122.11 96,-140.99 96,-140.99"/>
<polygon fill="black" stroke="black" points="92.5,-140.99 96,-150.99 99.5,-140.99 92.5,-140.99"/>
</g>
<!-- LoginComponent -->
<g id="node3" class="node">
<title>LoginComponent</title>
<polygon fill="#ffffb3" stroke="black" points="324.28,-122 209.72,-122 209.72,-86 324.28,-86 324.28,-122"/>
<text text-anchor="middle" x="267" y="-99.8" font-family="Times,serif" font-size="14.00">LoginComponent</text>
</g>
<!-- AuthModule -->
<g id="node4" class="node">
<title>AuthModule</title>
<polygon fill="#8dd3c7" stroke="black" points="310.55,-187 307.55,-191 286.55,-191 283.55,-187 223.45,-187 223.45,-151 310.55,-151 310.55,-187"/>
<text text-anchor="middle" x="267" y="-164.8" font-family="Times,serif" font-size="14.00">AuthModule</text>
</g>
<!-- LoginComponent&#45;&gt;AuthModule -->
<g id="edge2" class="edge">
<title>LoginComponent&#45;&gt;AuthModule</title>
<path fill="none" stroke="black" d="M267,-122.11C267,-122.11 267,-140.99 267,-140.99"/>
<polygon fill="black" stroke="black" points="263.5,-140.99 267,-150.99 270.5,-140.99 263.5,-140.99"/>
</g>
<!-- LoginComponent  -->
<g id="node5" class="node">
<title>LoginComponent </title>
<polygon fill="#fb8072" stroke="black" points="326.28,-252 207.72,-252 207.72,-216 326.28,-216 326.28,-252"/>
<text text-anchor="middle" x="267" y="-229.8" font-family="Times,serif" font-size="14.00">LoginComponent </text>
</g>
<!-- AuthModule&#45;&gt;LoginComponent  -->
<g id="edge3" class="edge">
<title>AuthModule&#45;&gt;LoginComponent </title>
<path fill="none" stroke="black" stroke-dasharray="5,2" d="M267,-187.11C267,-187.11 267,-205.99 267,-205.99"/>
<polygon fill="black" stroke="black" points="263.5,-205.99 267,-215.99 270.5,-205.99 263.5,-205.99"/>
</g>
<!-- DashboardLayoutComponent -->
<g id="node6" class="node">
<title>DashboardLayoutComponent</title>
<polygon fill="#8dd3c7" stroke="black" points="1007.63,-122 1004.63,-126 983.63,-126 980.63,-122 826.37,-122 826.37,-86 1007.63,-86 1007.63,-122"/>
<text text-anchor="middle" x="917" y="-99.8" font-family="Times,serif" font-size="14.00">DashboardLayoutComponent</text>
</g>
<!-- DashboardModule -->
<g id="node10" class="node">
<title>DashboardModule</title>
<polygon fill="#8dd3c7" stroke="black" points="707.19,-187 704.19,-191 683.19,-191 680.19,-187 586.81,-187 586.81,-151 707.19,-151 707.19,-187"/>
<text text-anchor="middle" x="647" y="-164.8" font-family="Times,serif" font-size="14.00">DashboardModule</text>
</g>
<!-- DashboardLayoutComponent&#45;&gt;DashboardModule -->
<g id="edge4" class="edge">
<title>DashboardLayoutComponent&#45;&gt;DashboardModule</title>
<path fill="none" stroke="black" d="M917,-122.11C917,-141.34 917,-169 917,-169 917,-169 717.26,-169 717.26,-169"/>
<polygon fill="black" stroke="black" points="717.26,-165.5 707.26,-169 717.26,-172.5 717.26,-165.5"/>
</g>
<!-- DashboardRoutingModule -->
<g id="node7" class="node">
<title>DashboardRoutingModule</title>
<polygon fill="#8dd3c7" stroke="black" points="808.81,-122 805.81,-126 784.81,-126 781.81,-122 643.19,-122 643.19,-86 808.81,-86 808.81,-122"/>
<text text-anchor="middle" x="726" y="-99.8" font-family="Times,serif" font-size="14.00">DashboardRoutingModule</text>
</g>
<!-- DashboardRoutingModule&#45;&gt;DashboardModule -->
<g id="edge5" class="edge">
<title>DashboardRoutingModule&#45;&gt;DashboardModule</title>
<path fill="none" stroke="black" d="M675.22,-122.11C675.22,-122.11 675.22,-140.99 675.22,-140.99"/>
<polygon fill="black" stroke="black" points="671.72,-140.99 675.22,-150.99 678.72,-140.99 671.72,-140.99"/>
</g>
<!-- HomeComponent -->
<g id="node8" class="node">
<title>HomeComponent</title>
<polygon fill="#8dd3c7" stroke="black" points="625.55,-122 622.55,-126 601.55,-126 598.55,-122 510.45,-122 510.45,-86 625.55,-86 625.55,-122"/>
<text text-anchor="middle" x="568" y="-99.8" font-family="Times,serif" font-size="14.00">HomeComponent</text>
</g>
<!-- HomeComponent&#45;&gt;DashboardModule -->
<g id="edge6" class="edge">
<title>HomeComponent&#45;&gt;DashboardModule</title>
<path fill="none" stroke="black" d="M606.34,-122.11C606.34,-122.11 606.34,-140.99 606.34,-140.99"/>
<polygon fill="black" stroke="black" points="602.84,-140.99 606.34,-150.99 609.84,-140.99 602.84,-140.99"/>
</g>
<!-- SettingsComponent -->
<g id="node9" class="node">
<title>SettingsComponent</title>
<polygon fill="#8dd3c7" stroke="black" points="492.45,-122 489.45,-126 468.45,-126 465.45,-122 365.55,-122 365.55,-86 492.45,-86 492.45,-122"/>
<text text-anchor="middle" x="429" y="-99.8" font-family="Times,serif" font-size="14.00">SettingsComponent</text>
</g>
<!-- SettingsComponent&#45;&gt;DashboardModule -->
<g id="edge7" class="edge">
<title>SettingsComponent&#45;&gt;DashboardModule</title>
<path fill="none" stroke="black" d="M429,-122.11C429,-141.34 429,-169 429,-169 429,-169 576.85,-169 576.85,-169"/>
<polygon fill="black" stroke="black" points="576.85,-172.5 586.85,-169 576.85,-165.5 576.85,-172.5"/>
</g>
<!-- UserRoutingModule -->
<g id="node11" class="node">
<title>UserRoutingModule</title>
<polygon fill="#8dd3c7" stroke="black" points="1179.59,-122 1176.59,-126 1155.59,-126 1152.59,-122 1048.41,-122 1048.41,-86 1179.59,-86 1179.59,-122"/>
<text text-anchor="middle" x="1114" y="-99.8" font-family="Times,serif" font-size="14.00">UserRoutingModule</text>
</g>
<!-- UserModule -->
<g id="node12" class="node">
<title>UserModule</title>
<polygon fill="#8dd3c7" stroke="black" points="1156.98,-187 1153.98,-191 1132.98,-191 1129.98,-187 1071.02,-187 1071.02,-151 1156.98,-151 1156.98,-187"/>
<text text-anchor="middle" x="1114" y="-164.8" font-family="Times,serif" font-size="14.00">UserModule</text>
</g>
<!-- UserRoutingModule&#45;&gt;UserModule -->
<g id="edge8" class="edge">
<title>UserRoutingModule&#45;&gt;UserModule</title>
<path fill="none" stroke="black" d="M1114,-122.11C1114,-122.11 1114,-140.99 1114,-140.99"/>
<polygon fill="black" stroke="black" points="1110.5,-140.99 1114,-150.99 1117.5,-140.99 1110.5,-140.99"/>
</g>
</g>
</svg>
