<?xml version="1.0" standalone="no"?>
<!DOCTYPE svg PUBLIC "-//W3C//DTD SVG 20010904//EN"
 "http://www.w3.org/TR/2001/REC-SVG-20010904/DTD/svg10.dtd">
<svg version="1.0" xmlns="http://www.w3.org/2000/svg"
 width="640.000000pt" height="320.000000pt" viewBox="0 0 640.000000 320.000000"
 preserveAspectRatio="xMidYMid meet">

<g transform="translate(0.000000,320.000000) scale(0.100000,-0.100000)"
fill="#000000" stroke="none">
<path d="M0 1600 l0 -1600 3200 0 3200 0 0 1600 0 1600 -3200 0 -3200 0 0
-1600z m2010 -6 c0 -74 -4 -113 -10 -109 -6 4 -10 53 -10 116 0 66 4 109 10
109 6 0 10 -45 10 -116z m158 20 c3 -96 -3 -138 -18 -129 -16 10 -13 228 3
223 8 -3 13 -34 15 -94z m73 10 c4 -76 7 -88 28 -105 30 -24 62 -24 92 0 21
17 24 29 28 105 1 47 7 86 12 86 5 0 9 -39 9 -86 0 -81 -1 -87 -29 -115 -48
-47 -116 -38 -146 21 -16 32 -21 180 -6 180 5 0 11 -39 12 -86z m298 21 c24
-36 48 -65 52 -65 4 0 21 17 37 38 17 20 33 35 35 32 7 -7 -60 -100 -72 -100
-4 0 -28 28 -52 63 l-44 62 -3 -90 c-4 -137 -22 -131 -22 8 0 87 3 117 13 117
6 0 32 -30 56 -65z m181 -44 c0 -63 -4 -112 -10 -116 -6 -4 -10 35 -10 109 0
71 4 116 10 116 6 0 10 -43 10 -109z m197 3 c45 -108 47 -114 34 -114 -4 0
-25 41 -45 90 -21 50 -41 90 -45 90 -7 0 -33 -60 -67 -152 -5 -16 0 -18 40
-18 25 0 46 -4 46 -10 0 -11 -106 -14 -113 -2 -3 4 12 48 32 97 21 50 40 98
44 108 13 34 32 11 74 -89z m100 -61 c-2 -32 -3 -6 -3 57 0 63 1 89 3 58 2
-32 2 -84 0 -115z m173 57 c0 -82 -3 -110 -12 -110 -14 1 -122 149 -115 157 3
2 27 -27 53 -64 l49 -68 3 98 c4 135 22 124 22 -13z m298 103 c-10 -2 -26 -2
-35 0 -10 3 -2 5 17 5 19 0 27 -2 18 -5z m-1378 -103 c0 -5 -13 -10 -30 -10
-16 0 -30 5 -30 10 0 6 14 10 30 10 17 0 30 -4 30 -10z"/>
</g>
</svg>
